<?xml version="1.0" encoding="utf-8"?>
<!-- Generator: Adobe Illustrator 22.1.0, SVG Export Plug-In . SVG Version: 6.00 Build 0)  -->
<svg xmlns="http://www.w3.org/2000/svg" xmlns:xlink="http://www.w3.org/1999/xlink" version="1.1" id="Layer_1" x="0px" y="0px" viewBox="0 0 256 256" style="enable-background:new 0 0 256 256;" xml:space="preserve" width="512" height="512">
<style type="text/css">
	.st0{fill:#F9CFCF;}
	.st1{fill:#3762CC;}
	.st2{fill:#F9A7A7;}
	.st3{fill:#E0EBFC;}
	.st4{fill:#4671C6;}
	.st5{fill:#6BDDDD;}
	.st6{fill:#FFEA92;}
	.st7{fill:#A4C9FF;}
	.st8{fill:#EAA97D;}
	.st9{fill:#B9BEFC;}
</style>
<g>
	<g>
		<path class="st2" d="M230.702,247.6h-44.973c-1.657,0-3-1.343-3-3v-43h50.973v43C233.702,246.257,232.358,247.6,230.702,247.6z"/>
	</g>
	<g>
		<path class="st1" d="M230.702,249.6h-44.973c-2.757,0-5-2.243-5-5v-43c0-1.104,0.896-2,2-2h50.973c1.104,0,2,0.896,2,2v43    C235.702,247.356,233.458,249.6,230.702,249.6z M184.729,203.6v41c0,0.552,0.449,1,1,1h44.973c0.551,0,1-0.448,1-1v-41H184.729z"/>
	</g>
	<g>
		<circle class="st3" cx="165.875" cy="110.221" r="20.9"/>
	</g>
	<g>
		<path class="st1" d="M165.875,133.121c-12.627,0-22.9-10.273-22.9-22.9s10.273-22.899,22.9-22.899s22.9,10.272,22.9,22.899    S178.502,133.121,165.875,133.121z M165.875,91.321c-10.421,0-18.9,8.479-18.9,18.899c0,10.422,8.479,18.9,18.9,18.9    s18.9-8.479,18.9-18.9C184.775,99.8,176.296,91.321,165.875,91.321z"/>
	</g>
	<g>
		<circle class="st3" cx="51.875" cy="85.521" r="22.8"/>
	</g>
	<g>
		<circle class="st3" cx="29.075" cy="81.721" r="19"/>
	</g>
	<g>
		<path class="st1" d="M51.875,110.321c-7.018,0-13.627-2.935-18.328-8.094c-1.489,0.327-2.988,0.493-4.472,0.493    c-11.58,0-21-9.421-21-21s9.42-21,21-21c3.864,0,7.601,1.051,10.884,3.05c3.642-1.999,7.735-3.05,11.916-3.05    c13.675,0,24.8,11.125,24.8,24.8S65.55,110.321,51.875,110.321z M34.253,97.988c0.589,0,1.159,0.261,1.545,0.729    c3.972,4.832,9.832,7.604,16.077,7.604c11.469,0,20.8-9.331,20.8-20.801c0-11.469-9.331-20.8-20.8-20.8    c-3.867,0-7.644,1.071-10.921,3.099c-0.679,0.418-1.541,0.395-2.194-0.059c-2.86-1.989-6.209-3.04-9.685-3.04    c-9.374,0-17,7.626-17,17s7.626,17,17,17c1.532,0,3.091-0.221,4.634-0.657C33.889,98.013,34.072,97.988,34.253,97.988z"/>
	</g>
	<g>
		<path class="st3" d="M155.232,225.293l7.13,7.08c3.086,3.064,8.088,3.064,11.174,0h0c3.086-3.064,3.086-8.032,0-11.096    l-2.74-2.721c-0.233-0.231-0.364-0.545-0.364-0.872v-22.914H153.05v22.191v3.1C153.05,222.024,153.835,223.906,155.232,225.293z"/>
	</g>
	<g>
		<path class="st3" d="M72.018,225.293l-7.13,7.08c-3.086,3.064-8.088,3.064-11.174,0h0c-3.086-3.064-3.086-8.032,0-11.096    l2.74-2.721c0.233-0.231,0.364-0.545,0.364-0.872v-22.914H74.2v22.191v3.1C74.2,222.024,73.415,223.906,72.018,225.293z"/>
	</g>
	<g>
		<path class="st1" d="M167.949,236.665c-2.534,0-5.067-0.958-6.996-2.873l-7.13-7.08c-1.762-1.749-2.773-4.173-2.773-6.649v-25.292    c0-1.104,0.896-2,2-2h17.382c1.104,0,2,0.896,2,2v22.593l2.513,2.495c1.873,1.859,2.905,4.333,2.905,6.966    s-1.032,5.107-2.905,6.968C173.016,235.707,170.482,236.665,167.949,236.665z M155.05,196.771v23.292    c0,1.439,0.565,2.793,1.591,3.812l0,0l7.13,7.08c2.304,2.287,6.052,2.286,8.355,0c1.112-1.104,1.724-2.57,1.724-4.13    c0-1.559-0.612-3.024-1.724-4.128l-2.74-2.721c-0.616-0.611-0.955-1.425-0.955-2.291v-20.914H155.05z"/>
	</g>
	<g>
		<path class="st1" d="M59.301,236.665c-2.534,0-5.067-0.958-6.996-2.873c-1.874-1.86-2.905-4.335-2.905-6.968    s1.032-5.106,2.905-6.966l2.513-2.495v-22.593c0-1.104,0.896-2,2-2H74.2c1.104,0,2,0.896,2,2v25.292    c0,2.477-1.011,4.9-2.773,6.649l-7.13,7.08C64.369,235.707,61.835,236.665,59.301,236.665z M58.818,196.771v20.914    c0,0.866-0.339,1.68-0.954,2.291l-2.741,2.721c-1.111,1.104-1.724,2.569-1.724,4.128c0,1.56,0.612,3.025,1.724,4.13    c2.304,2.287,6.052,2.286,8.355,0l7.13-7.08l0,0c1.026-1.019,1.591-2.372,1.591-3.812v-23.292H58.818z"/>
	</g>
	<g>
		<path class="st7" d="M170.973,213.771H56.277c-5.717,0-11.057-2.857-14.228-7.615l0,0c-9.079-13.618-13.924-29.619-13.924-45.986    v-41.399h171v41.399c0,16.367-4.845,32.368-13.924,45.986l0,0C182.03,210.913,176.691,213.771,170.973,213.771z"/>
	</g>
	<g>
		<path class="st1" d="M170.973,215.771H56.277c-6.4,0-12.341-3.18-15.893-8.505c-9.329-13.993-14.259-30.278-14.259-47.096v-41.399    c0-1.104,0.896-2,2-2h171c1.104,0,2,0.896,2,2v41.399c0,16.817-4.931,33.103-14.259,47.096    C183.314,212.591,177.374,215.771,170.973,215.771z M30.125,120.771v39.399c0,16.025,4.698,31.543,13.587,44.877    c2.807,4.21,7.504,6.724,12.564,6.724h114.696c5.06,0,9.757-2.514,12.564-6.724c8.889-13.334,13.587-28.852,13.587-44.877v-39.399    H30.125z"/>
	</g>
	<g>
		<path class="st2" d="M150.108,12.385c1.381,4.62,2.929,15.697-6.127,31.61l-28.301-23.126C130.2,9.42,141.67,8.98,146.582,9.503    C148.253,9.68,149.639,10.813,150.108,12.385z"/>
	</g>
	<g>
		<path class="st2" d="M60.593,12.385c-1.381,4.62-2.929,15.697,6.127,31.61l28.301-23.126C80.502,9.42,69.032,8.98,64.119,9.503    C62.448,9.68,61.063,10.813,60.593,12.385z"/>
	</g>
	<g>
		<path class="st1" d="M143.981,45.994c-0.458,0-0.905-0.157-1.266-0.451l-28.3-23.126c-0.469-0.384-0.74-0.96-0.734-1.566    s0.286-1.178,0.762-1.553c14.803-11.673,26.623-12.387,32.351-11.784c2.477,0.264,4.53,1.951,5.232,4.299    c1.617,5.408,2.948,16.911-6.306,33.171c-0.292,0.512-0.793,0.869-1.372,0.977C144.226,45.983,144.103,45.994,143.981,45.994z     M118.91,20.925l24.471,19.997c7.541-14.396,5.913-24.277,4.811-27.964l0-0.001c-0.238-0.798-0.954-1.373-1.822-1.465    C142.441,11.071,132.155,11.226,118.91,20.925z"/>
	</g>
	<g>
		<path class="st1" d="M66.72,45.994c-0.122,0-0.245-0.011-0.366-0.034c-0.579-0.107-1.081-0.465-1.372-0.977    c-9.254-16.26-7.923-27.763-6.305-33.172l0,0.001c0.702-2.348,2.755-4.035,5.232-4.299c5.725-0.604,17.548,0.112,32.351,11.784    c0.476,0.375,0.756,0.946,0.762,1.553s-0.265,1.183-0.734,1.566l-28.3,23.126C67.626,45.837,67.178,45.994,66.72,45.994z     M66.717,11.372c-0.952,0-1.751,0.052-2.386,0.12c-0.868,0.092-1.583,0.667-1.822,1.465l0,0.001    c-1.102,3.687-2.729,13.568,4.811,27.964l24.471-19.997C80.685,12.792,71.66,11.372,66.717,11.372z M60.593,12.385h0.01H60.593z"/>
	</g>
	<g>
		<path class="st0" d="M64.72,66.943V53.859c0-18.521,15.014-33.535,33.535-33.535h14.191c18.521,0,33.535,15.014,33.535,33.535    v13.084c0,6.039-4.896,10.935-10.935,10.935H75.655C69.616,77.879,64.72,72.983,64.72,66.943z"/>
	</g>
	<g>
		<path class="st2" d="M87.621,67.156c6.528,0,11.82-5.154,11.82-11.511V20.394h-2.839C78.813,21.451,64.72,35.829,64.72,53.418    v13.669c0,0.023,0.003,0.046,0.004,0.069H87.621z"/>
	</g>
	<g>
		<path class="st2" d="M114.1,20.394h-2.839v35.252c0,6.357,5.292,11.511,11.82,11.511h22.897c0-0.023,0.004-0.046,0.004-0.069    V53.418C145.981,35.829,131.888,21.451,114.1,20.394z"/>
	</g>
	<g>
		<path class="st0" d="M142.143,35.535c3.594-8.294,3.837-14.563,3.36-18.461c-0.171-1.395-1.424-2.419-2.864-2.34    c-4.025,0.22-10.322,1.541-18.085,6.428L142.143,35.535z"/>
	</g>
	<g>
		<path class="st0" d="M68.558,35.535c-3.594-8.294-3.837-14.563-3.36-18.461c0.171-1.395,1.424-2.419,2.864-2.34    c4.025,0.22,10.322,1.541,18.085,6.428L68.558,35.535z"/>
	</g>
	<g>
		<g>
			<path class="st1" d="M85.492,61.68h-1.058c-1.96,0-3.548-1.589-3.548-3.548v-5.602c0-1.96,1.589-3.548,3.548-3.548h1.058     c1.96,0,3.548,1.589,3.548,3.548v5.602C89.04,60.091,87.452,61.68,85.492,61.68z"/>
		</g>
		<g>
			<path class="st1" d="M126.268,61.68h-1.058c-1.96,0-3.548-1.589-3.548-3.548v-5.602c0-1.96,1.589-3.548,3.548-3.548h1.058     c1.96,0,3.548,1.589,3.548,3.548v5.602C129.816,60.091,128.227,61.68,126.268,61.68z"/>
		</g>
	</g>
	<g>
		<path class="st1" d="M135.046,79.879H75.655c-7.132,0-12.935-5.803-12.935-12.936V53.859c0-19.594,15.941-35.535,35.535-35.535    h14.191c19.594,0,35.535,15.941,35.535,35.535v13.084C147.981,74.076,142.178,79.879,135.046,79.879z M98.255,22.324    c-17.388,0-31.535,14.146-31.535,31.535v13.084c0,4.927,4.008,8.936,8.935,8.936h59.391c4.927,0,8.935-4.009,8.935-8.936V53.859    c0-17.389-14.146-31.535-31.535-31.535H98.255z"/>
	</g>
	<g>
		<path class="st0" d="M56.594,85.427L56.594,85.427c0-12.715,10.307-23.022,23.022-23.022h51.47    c12.714,0,23.022,10.307,23.022,23.022v0c0,12.714-10.307,23.022-23.022,23.022h-51.47    C66.901,108.449,56.594,98.142,56.594,85.427z"/>
	</g>
	<g>
		<path class="st3" d="M115.848,108.449H94.853c-6.442,0-11.664-5.222-11.664-11.664V85.581c0-6.442,5.222-11.664,11.664-11.664    h20.996c6.442,0,11.664,5.222,11.664,11.664v11.204C127.513,103.227,122.29,108.449,115.848,108.449z"/>
	</g>
	<g>
		<path class="st1" d="M113.582,90.38c-3.167,0-6.1-1.004-8.231-2.758c-2.131,1.754-5.064,2.758-8.231,2.758    c-6.34,0-11.498-4.125-11.498-9.194c0-1.104,0.896-2,2-2s2,0.896,2,2c0,2.815,3.434,5.194,7.498,5.194    c2.771,0,5.315-1.083,6.639-2.826c0.756-0.996,2.43-0.996,3.186,0c1.324,1.743,3.867,2.826,6.639,2.826    c4.064,0,7.498-2.379,7.498-5.194c0-1.104,0.896-2,2-2s2,0.896,2,2C125.08,86.255,119.922,90.38,113.582,90.38z"/>
	</g>
	<g>
		<path class="st4" d="M109.165,78.953h-7.628c-2.789,0-5.051-2.261-5.051-5.051v-1.654c0-1.86,1.508-3.367,3.367-3.367h10.995    c1.86,0,3.367,1.508,3.367,3.367v1.654C114.215,76.691,111.954,78.953,109.165,78.953z"/>
	</g>
	<g>
		<path class="st1" d="M131.085,110.449h-51.47c-13.797,0-25.022-11.225-25.022-25.021c0-13.798,11.225-25.022,25.022-25.022h51.47    c13.797,0,25.022,11.225,25.022,25.022C156.107,99.225,144.883,110.449,131.085,110.449z M79.616,64.405    c-11.592,0-21.022,9.431-21.022,21.022c0,11.591,9.43,21.021,21.022,21.021h51.47c11.592,0,21.022-9.431,21.022-21.021    c0-11.592-9.43-21.022-21.022-21.022H79.616z"/>
	</g>
	<g>
		<path class="st5" d="M205.83,133.496H21.42c-3.118,0-5.645-2.528-5.645-5.645v-14.359c0-3.118,2.528-5.645,5.645-5.645H205.83    c3.118,0,5.645,2.528,5.645,5.645v14.359C211.475,130.968,208.947,133.496,205.83,133.496z"/>
	</g>
	<g>
		<path class="st1" d="M205.83,135.496H21.42c-4.216,0-7.646-3.43-7.646-7.646v-14.359c0-4.216,3.43-7.646,7.646-7.646H205.83    c4.216,0,7.646,3.43,7.646,7.646v14.359C213.475,132.066,210.045,135.496,205.83,135.496z M21.42,109.846    c-2.01,0-3.646,1.636-3.646,3.646v14.359c0,2.01,1.635,3.646,3.646,3.646H205.83c2.01,0,3.646-1.636,3.646-3.646v-14.359    c0-2.01-1.635-3.646-3.646-3.646H21.42z"/>
	</g>
	<g>
		<path class="st0" d="M41.488,110.448c0.238,4.041,1.149,8.065,2.723,12.026l1.062,2.672c0.723,1.82,3.792,3.125,7.349,3.125h0    h6.107h0c3.557,0,6.626-1.305,7.349-3.125l1.062-2.672c1.574-3.961,2.485-7.985,2.723-12.026l0.063-4.856    c0-2.165-3.359-3.921-7.502-3.921h-3.695h-6.107h-3.695c-4.143,0-7.502,1.755-7.502,3.921L41.488,110.448z"/>
	</g>
	<g>
		<path class="st0" d="M138.388,110.448c0.238,4.041,1.149,8.065,2.723,12.026l1.062,2.672c0.723,1.82,3.792,3.125,7.349,3.125l0,0    h6.107l0,0c3.557,0,6.626-1.305,7.349-3.125l1.062-2.672c1.574-3.961,2.485-7.985,2.723-12.026l0.063-4.856    c0-2.165-3.359-3.921-7.502-3.921h-3.695h-6.107h-3.695c-4.143,0-7.502,1.755-7.502,3.921L138.388,110.448z"/>
	</g>
	<g>
		<path class="st1" d="M58.729,130.271h-6.107c-4.465,0-8.166-1.763-9.208-4.387l-1.062-2.672c-1.648-4.147-2.611-8.402-2.86-12.646    c-0.002-0.03-0.003-0.061-0.003-0.091l-0.063-4.856c0-3.401,4.085-5.947,9.502-5.947h13.497c5.417,0,9.501,2.546,9.501,5.921    l-0.063,4.883c-0.253,4.335-1.216,8.59-2.864,12.737l-1.061,2.672C66.894,128.508,63.194,130.271,58.729,130.271z M43.487,110.376    c0.229,3.802,1.098,7.623,2.582,11.359l1.062,2.672c0.303,0.762,2.432,1.863,5.491,1.863h6.107c3.059,0,5.188-1.102,5.49-1.863    l1.062-2.672c1.491-3.751,2.36-7.588,2.585-11.404l0.06-4.766c0-0.452-1.951-1.895-5.501-1.895H48.927    c-3.551,0-5.502,1.442-5.502,1.921L43.487,110.376z"/>
	</g>
	<g>
		<path class="st1" d="M155.628,130.271h-6.107c-4.465,0-8.166-1.763-9.208-4.387l-1.062-2.672c-1.648-4.147-2.61-8.402-2.86-12.646    c-0.002-0.03-0.003-0.061-0.003-0.091l-0.063-4.856c0-3.401,4.085-5.947,9.501-5.947h13.497c5.417,0,9.502,2.546,9.502,5.921    l-0.063,4.883c-0.253,4.335-1.215,8.59-2.863,12.737l-1.063,2.672C163.794,128.508,160.094,130.271,155.628,130.271z     M140.387,110.376c0.229,3.802,1.098,7.624,2.582,11.359l1.062,2.672c0.302,0.762,2.432,1.863,5.49,1.863h6.107    c3.059,0,5.188-1.102,5.49-1.863l1.063-2.672c1.49-3.751,2.359-7.588,2.584-11.404l0.06-4.766c0-0.452-1.951-1.895-5.502-1.895    h-13.497c-3.55,0-5.501,1.442-5.501,1.921L140.387,110.376z"/>
	</g>
	<g>
		<circle class="st3" cx="29.075" cy="104.521" r="20.9"/>
	</g>
	<g>
		<circle class="st3" cx="192" cy="111.646" r="14.725"/>
	</g>
	<g>
		<path class="st1" d="M29.075,127.421c-12.627,0-22.9-10.273-22.9-22.9s10.273-22.899,22.9-22.899    c12.627,0,22.9,10.272,22.9,22.899S41.702,127.421,29.075,127.421z M29.075,85.621c-10.422,0-18.9,8.479-18.9,18.899    c0,10.422,8.479,18.9,18.9,18.9c10.421,0,18.9-8.479,18.9-18.9C47.975,94.1,39.497,85.621,29.075,85.621z"/>
	</g>
	<g>
		<path class="st1" d="M192,128.371c-9.222,0-16.725-7.503-16.725-16.726c0-9.222,7.503-16.725,16.725-16.725    s16.725,7.503,16.725,16.725C208.725,120.868,201.222,128.371,192,128.371z M192,98.921c-7.017,0-12.725,5.708-12.725,12.725    s5.708,12.726,12.725,12.726s12.725-5.709,12.725-12.726S199.017,98.921,192,98.921z"/>
	</g>
	<g>
		<path class="st6" d="M241.509,226.6h-69.368c-3.488,0-6.316-2.828-6.316-6.316v-99.368c0-3.488,2.828-6.316,6.316-6.316h69.368    c3.488,0,6.316,2.828,6.316,6.316v99.368C247.825,223.772,244.997,226.6,241.509,226.6z"/>
	</g>
	<g>
		<path class="st7" d="M231.636,148.6h-49.622c-2.209,0-4-1.791-4-4v-16c0-2.209,1.791-4,4-4h49.622c2.209,0,4,1.791,4,4v16    C235.636,146.809,233.845,148.6,231.636,148.6z"/>
	</g>
	<g>
		<circle class="st8" cx="206.487" cy="40.6" r="32.2"/>
	</g>
	<g>
		<circle class="st6" cx="206.487" cy="40.6" r="26.6"/>
	</g>
	<g>
		<g>
			<path class="st4" d="M204.347,57.878c-4.711-0.711-8.124-3.629-8.511-8.396c-0.04-0.497,0.363-0.92,0.861-0.92h3.728     c0.426,0,0.779,0.313,0.85,0.733c0.282,1.658,1.112,2.955,2.555,3.64c0.576,0.273,1.243-0.137,1.243-0.775v-9.003     c0-0.386-0.257-0.724-0.628-0.829c-4.235-1.198-8.645-2.762-8.645-9.378c0-5.271,3.468-8.967,8.554-9.758     c0.416-0.065,0.72-0.426,0.72-0.847v-2.422c0-0.475,0.385-0.861,0.861-0.861h1.149c0.475,0,0.861,0.385,0.861,0.861v2.37     c0,0.42,0.304,0.785,0.719,0.847c4.387,0.662,7.42,3.395,8.097,8.093c0.074,0.516-0.334,0.979-0.856,0.979h-3.692     c-0.412,0-0.755-0.295-0.844-0.698c-0.276-1.238-0.984-2.361-2.077-3.077c-0.579-0.379-1.348,0.021-1.348,0.713v8.657     c0,0.389,0.261,0.729,0.637,0.831c4.23,1.151,8.593,2.673,8.593,9.284c0,4.581-3.006,9.027-8.51,9.905     c-0.415,0.066-0.72,0.426-0.72,0.847v2.424c0,0.475-0.385,0.861-0.861,0.861h-1.149c-0.476,0-0.861-0.385-0.861-0.861v-2.371     C205.073,58.303,204.765,57.941,204.347,57.878z M205.073,36.343v-7.571c0-0.582-0.572-1.014-1.122-0.821     c-1.82,0.639-3.029,2.188-3.029,4.705c0,2.33,1.175,3.611,2.902,4.459C204.4,37.396,205.073,36.983,205.073,36.343z      M207.944,44.623v7.561c0,0.625,0.644,1.036,1.217,0.787c1.888-0.821,2.934-2.616,2.934-4.754c0-2.292-1.178-3.534-2.908-4.368     C208.613,43.573,207.944,43.985,207.944,44.623z"/>
		</g>
	</g>
	<g>
		<path class="st1" d="M206.487,74.8c-18.858,0-34.2-15.342-34.2-34.2c0-18.857,15.342-34.199,34.2-34.199s34.2,15.342,34.2,34.199    C240.687,59.458,225.345,74.8,206.487,74.8z M206.487,10.4c-16.652,0-30.2,13.547-30.2,30.199s13.547,30.2,30.2,30.2    s30.2-13.548,30.2-30.2S223.139,10.4,206.487,10.4z"/>
	</g>
	<g>
		<path class="st4" d="M190.825,172.6h-8c-2.209,0-4-1.791-4-4v-8c0-2.209,1.791-4,4-4h8c2.209,0,4,1.791,4,4v8    C194.825,170.809,193.034,172.6,190.825,172.6z"/>
	</g>
	<g>
		<path class="st4" d="M210.825,172.6h-8c-2.209,0-4-1.791-4-4v-8c0-2.209,1.791-4,4-4h8c2.209,0,4,1.791,4,4v8    C214.825,170.809,213.034,172.6,210.825,172.6z"/>
	</g>
	<g>
		<path class="st4" d="M230.825,172.6h-8c-2.209,0-4-1.791-4-4v-8c0-2.209,1.791-4,4-4h8c2.209,0,4,1.791,4,4v8    C234.825,170.809,233.034,172.6,230.825,172.6z"/>
	</g>
	<g>
		<path class="st4" d="M190.825,194.6h-8c-2.209,0-4-1.791-4-4v-8c0-2.209,1.791-4,4-4h8c2.209,0,4,1.791,4,4v8    C194.825,192.809,193.034,194.6,190.825,194.6z"/>
	</g>
	<g>
		<path class="st4" d="M210.825,194.6h-8c-2.209,0-4-1.791-4-4v-8c0-2.209,1.791-4,4-4h8c2.209,0,4,1.791,4,4v8    C214.825,192.809,213.034,194.6,210.825,194.6z"/>
	</g>
	<g>
		<path class="st7" d="M230.825,216.6h-8c-2.209,0-4-1.791-4-4v-30c0-2.209,1.791-4,4-4h8c2.209,0,4,1.791,4,4v30    C234.825,214.809,233.034,216.6,230.825,216.6z"/>
	</g>
	<g>
		<path class="st2" d="M223.825,209.6v-24c0-1.105,0.895-2,2-2h2c1.105,0,2,0.895,2,2v24c0,1.105-0.895,2-2,2h-2    C224.72,211.6,223.825,210.705,223.825,209.6z"/>
	</g>
	<g>
		<path class="st4" d="M190.825,216.6h-8c-2.209,0-4-1.791-4-4v-8c0-2.209,1.791-4,4-4h8c2.209,0,4,1.791,4,4v8    C194.825,214.809,193.034,216.6,190.825,216.6z"/>
	</g>
	<g>
		<path class="st4" d="M210.825,216.6h-8c-2.209,0-4-1.791-4-4v-8c0-2.209,1.791-4,4-4h8c2.209,0,4,1.791,4,4v8    C214.825,214.809,213.034,216.6,210.825,216.6z"/>
	</g>
	<g>
		<path class="st1" d="M241.509,228.6h-69.368c-4.585,0-8.316-3.73-8.316-8.315v-99.368c0-4.586,3.73-8.316,8.316-8.316h69.368    c4.585,0,8.316,3.73,8.316,8.316v99.368C249.825,224.869,246.094,228.6,241.509,228.6z M172.141,116.6    c-2.38,0-4.316,1.937-4.316,4.316v99.368c0,2.38,1.936,4.315,4.316,4.315h69.368c2.38,0,4.316-1.936,4.316-4.315v-99.368    c0-2.38-1.937-4.316-4.316-4.316H172.141z"/>
	</g>
</g>
</svg>
